<mxfile host="app.diagrams.net" modified="2024-04-24T14:38:42.126Z" agent="Mozilla/5.0 (Windows NT 10.0; Win64; x64) AppleWebKit/537.36 (KHTML, like Gecko) Chrome/124.0.0.0 Safari/537.36 Edg/124.0.0.0" version="24.3.0" etag="va4X1x5q2-AUYNY-GhCV" type="github">
  <diagram name="第 1 页" id="7m2exh5JeCXOTjw2yQLa">
    <mxGraphModel>
      <root>
        <mxCell id="0" />
        <mxCell id="1" parent="0" />
      </root>
    </mxGraphModel>
  </diagram>
</mxfile>
